# xmcd CD database file
#
# Track frame offsets:
#	150
#	14943
#	29618
#	42615
#	57735
#	72524
#	86771
#	101335
#	115784
#	128870
#	141945
#	153978
#	169387
#	185000
#	199411
#	212963
#	227039
#	242135
#	257018
#	271826
#
# Disc length: 3824 seconds
#
# Revision: 0
# Processed by: cddbd v1.5.2PL0 Copyright (c) Steve Scherf et al.
# Submitted via: CDex 1.51
#
DISCID=3e0eee14
DTITLE=Various Artist - Jazz Charts CD 79 /100
DYEAR=1900
DGENRE=Jazz
TTITLE0=Duke Ellington and his Orchestra - I'm Beginning To See The Light
TTITLE1=Billy Butterfield and his Orchestra - Moonlight In Vermont
TTITLE2=Tommy Dorsey and his Orchestra - Sleigh Ride In July
TTITLE3=Count Basie and his Orchestra - I Didn't Know About You
TTITLE4=Les Brown and his Orchestra - Robin Hood
TTITLE5=Woody Herman and his Orchestra - Saturday Night (Is The Lonliest Night In The Week)
TTITLE6=Les Brown and his Orchestra - Sentimental Journey
TTITLE7=Les Brown and his Orchestra - Sleigh Ride In July
TTITLE8=Tommy Dorsey and his Orchestra - Opus No. 1
TTITLE9=Tommy Dorsey and his Orchestra - More And More
TTITLE10=Cab Calloway and his Orchestra - Let's Take The Long Way Home
TTITLE11=Benny Goodman Sextet - Ev'ry Time We Say Good Bye
TTITLE12=Les Brown and his Orchestra  - Twilight Time
TTITLE13=Les Brown and his Orchestra  - My Dreams Are Getting Better All The Time
TTITLE14=Charlie Barnet and his Orchestra  - Skyliner
TTITLE15=Harry James and his Orchestra  - I Don't Care Who Knows It
TTITLE16=Woody Herman and his Orchestra - Laura
TTITLE17=Harry James and his Orchestra  - Guess I Hang My Tears  Out To Dry
TTITLE18=Jimmy Dorsey and his Orchestra  - I Should Care
TTITLE19=Louis Jordan and his Tympany Five  - You Can't Get That No More
EXTD=
EXTT0=
EXTT1=
EXTT2=
EXTT3=
EXTT4=
EXTT5=
EXTT6=
EXTT7=
EXTT8=
EXTT9=
EXTT10=
EXTT11=
EXTT12=
EXTT13=
EXTT14=
EXTT15=
EXTT16=
EXTT17=
EXTT18=
EXTT19=
PLAYORDER=
